<svg width="600" height="600" xmlns="http://www.w3.org/2000/svg">
 <!-- Created with Method Draw - http://github.com/duopixel/Method-Draw/ -->

 <g>
  <title>background</title>
  <rect x="-1" y="-1" width="802.000737" height="802.000737" id="canvas_background" fill="none"/>
  <g id="canvasGrid" display="none">
   <rect id="svg_1" width="100%" height="100%" x="0" y="0" stroke-width="0" fill="url(#gridpattern)"/>
  </g>
 </g>
 <g>
  <title>Layer 1</title>
  <ellipse fill="#ffffff" stroke-width="0" stroke-opacity="null" cx="299.885271" cy="299.873556" id="svg_9" rx="299.76058" ry="299.76058" stroke="#000"/>
  <ellipse fill="#292d3e" stroke="#000" stroke-width="0" stroke-opacity="null" fill-opacity="null" cx="11.124831" cy="17.863192" id="svg_7"/>
  <path stroke="#000" fill="#292d3e" stroke-width="0" d="m178.548743,224.156678c-4.658357,25.346265 -16.55743,49.569957 -17.358686,75.706849c1.066114,15.133208 -9.499192,23.261966 -23.962805,22.975776c-15.55607,15.495033 1.920078,39.983261 19.521394,46.238135c17.963123,11.586537 40.24766,-1.360189 58.04176,9.033393c23.627624,17.748423 33.491622,49.216771 25.340097,76.804555c-8.104771,22.773791 33.383115,14.491165 17.778133,-3.713676c-12.052344,-17.793842 22.719531,-11.910851 13.817708,4.982757c-1.682086,13.560867 10.409523,17.950178 5.028358,31.088186c14.018845,7.724409 -1.175144,12.049431 -9.713943,13.507903c-19.995889,9.578463 3.616869,-17.158319 -12.223855,-25.066539c-14.506127,3.02947 -4.676744,26.37205 -9.655906,23.676013c-10.250456,-7.713041 -10.242887,-36.5499 -27.446631,-17.734183c-5.709742,-23.184289 4.708178,-47.329781 -3.31718,-70.379455c3.287518,-17.213805 -24.995803,-23.151321 -21.41847,-3.186199c1.426092,30.47102 -8.202938,60.881334 -2.676558,91.20221c7.611388,18.701665 28.899224,27.126541 42.260085,41.55808c10.972888,11.127542 25.198293,23.024688 42.276995,19.52136c19.370816,-0.806875 38.777337,-2.525974 58.06075,0.429313c24.254619,0.735106 42.770003,-17.687739 63.46886,-27.151122c24.333112,-18.566721 20.501934,-51.730743 18.076232,-78.147501c-2.974373,-16.309455 3.552535,-32.626323 2.336184,-48.783122c-17.542857,-20.626122 -31.935977,15.628425 -26.938632,31.204576c-0.001238,19.593632 3.914491,44.833565 -15.536148,57.597036c-16.052011,-0.388952 -31.328881,5.213833 -47.504707,2.28436c-13.125743,7.490102 -34.386248,7.29776 -38.7188,-10.532654c-1.729736,-15.834592 5.736824,-32.435544 -4.408147,-47.213632c8.913574,7.377086 24.465019,-6.371329 15.798062,10.167585c-10.571203,13.462638 8.951281,34.207695 16.300572,14.336619c2.438305,-13.332347 -10.546975,-31.027218 10.798082,-28.170858c4.352985,4.702704 -14.865116,37.598095 11.404825,29.285065c18.729023,-3.942229 -3.332056,-32.173913 22.030725,-32.272011c12.274654,-13.886208 8.969713,-39.914113 27.745548,-50.448613c20.934927,-13.614225 53.62143,-3.785293 68.563517,-26.840929c12.736059,-11.798403 6.742525,-44.499718 -15.222548,-33.664186c-27.449256,2.571338 -5.664433,-35.725226 -6.430323,-50.075365c6.467519,-12.498478 -7.854301,-38.807725 -2.922654,-41.59902c9.318498,13.70018 12.655996,29.724043 10.651936,45.734924c-0.172205,13.577773 -6.164443,50.375348 13.479402,27.691366c6.649973,-15.808765 4.715871,-33.714999 9.453655,-50.16216c9.137895,-35.509024 -7.223715,-71.03778 -25.463844,-101.1137c-15.534807,-16.191307 -35.256702,-29.098414 -53.777054,-41.806542c-31.151903,-11.258467 -65.548425,-13.275376 -98.449601,-10.453743c-29.102397,4.847344 -59.878083,9.957815 -83.061848,29.025128c-22.594568,12.793098 -44.233598,29.784291 -53.166162,54.366096c-7.784353,19.803107 -21.415731,39.970135 -15.2204,61.968525c5.925018,18.338136 2.78252,37.38293 3.741843,56.126376c10.100377,21.421879 19.636366,-10.961727 18.691136,-21.673137c0.559161,-20.312314 11.711425,-38.291648 19.929055,-56.323806l-0.000012,-0.000033l0.000005,0.000001zm185.516547,43.57736c20.770735,1.430222 47.069621,12.544922 47.636464,35.716861c3.158294,23.253656 -16.395021,45.793905 -41.453123,43.513519c-22.760772,-1.796546 -37.317584,-20.688968 -35.806214,-41.929418c-7.620229,-15.229624 4.238193,-31.54076 20.15332,-35.041794c3.086267,-0.997228 6.258585,-1.74367 9.469553,-2.259179l0,0.000011zm-140.167502,1.98061c24.095585,-4.117829 51.510226,10.24595 51.590686,35.875632c2.263066,24.777105 -25.112105,29.631439 -43.78624,35.83847c-12.92165,8.017381 -26.344196,0.552615 -37.08108,-7.525166c-13.930567,-14.011378 -9.836042,-42.246448 4.873234,-55.036444c7.132801,-5.072642 15.962607,-7.066718 24.4034,-9.152491l0,-0.000001zm82.451536,65.364177c11.664956,15.406469 25.668835,38.900319 10.583522,56.386106c-13.391635,10.320329 -15.079971,-14.679575 -29.135774,-2.905654c-13.185974,-11.097064 -1.024407,-33.678482 8.227632,-44.951745c3.049424,-3.246284 6.538989,-6.104248 10.32462,-8.528707z" id="svg_3"/>
 </g>
</svg>
